{"title":"Wonder Boys(2000)MPEG-4[DaScubaDude]","uid":15389929,"size":1240587598,"categoryP":"video","categoryS":"movies","magnet":"?xt=urn:btih:288d321a8cea3f1f9be64452f43a96d50a896898&amp;dn=Wonder+Boys%282000%29MPEG-4%5BDaScubaDude%5D&amp;tr=udp%3A%2F%2Ftracker.leechers-paradise.org%3A6969&amp;tr=udp%3A%2F%2Fzer0day.ch%3A1337&amp;tr=udp%3A%2F%2Fopen.demonii.com%3A1337&amp;tr=udp%3A%2F%2Ftracker.coppersurfer.tk%3A6969&amp;tr=udp%3A%2F%2Fexodus.desync.com%3A6969","seeders":3,"leechers":0,"uploader":"dascuba","files":1,"time":1469320947,"description":"Wonder Boys (2000)\r\nR | 1h 47min | Comedy, Drama | 25 February 2000 (USA)\r\nAn English Professor tries to deal with his wife leaving him, the arrival of his editor who has been waiting for his book for seven years, and the various problems that his friends and associates involve him in.\r\nDirector: Curtis Hanson\r\nWriters: Michael Chabon (novel), Steve Kloves (screenplay)\r\nStars: Michael Douglas, Tobey Maguire, Frances McDormand |\r\n\r\nGeneral\r\nComplete name                            : Wonder BoysWONDBOYS_Title1.mp4\r\nFormat                                   : MPEG-4\r\nFormat profile                           : Base Media\r\nCodec ID                                 : isom (isom/iso2/avc1/mp41)\r\nFile size                                : 1.16 GiB\r\nDuration                                 : 1h 51mn\r\nOverall bit rate                         : 1 486 Kbps\r\nMovie name                               : WONDBOYS\r\nGenre                                    : Comedy_Drama\r\nWriting application                      : Lavf54.6.100\r\n\r\nVideo\r\nID                                       : 1\r\nFormat                                   : AVC\r\nFormat/Info                              : Advanced Video Codec\r\nFormat profile                           :   \r\nFormat settings, CABAC                   : No\r\nFormat settings, ReFrames                : 6 frames\r\nFormat settings, GOP                     : M=1, N=60\r\nCodec ID                                 : avc1\r\nCodec ID/Info                            : Advanced Video Coding\r\nDuration                                 : 1h 51mn\r\nBit rate                                 : 1 186 Kbps\r\nWidth                                    : 720 pixels\r\nHeight                                   : 404 pixels\r\nDisplay aspect ratio                     : 16:9\r\nFrame rate mode                          : Constant\r\nFrame rate                               : 29.970 (30000/1001) fps\r\nColor space                              : YUV\r\nChroma subsampling                       : 4:2:0\r\nBit depth                                : 8 bits\r\nScan type                                : Progressive\r\nBits/(Pixel*Frame)                       : 0.136\r\nStream size                              : 944 MiB (80%)\r\n\r\nAudio\r\nID                                       : 2\r\nFormat                                   : AAC\r\nFormat/Info                              : Advanced Audio Codec\r\nFormat profile                           : LC\r\nCodec ID                                 : 40\r\nDuration                                 : 1h 51mn\r\nBit rate mode                            : Constant\r\nBit rate                                 : 288 Kbps\r\nChannel(s)                               : 2 channels\r\nChannel(s)_Original                      : 5 channels\r\nChannel positions                        : Front: L C R, Side: L R\r\nSampling rate                            : 44.1 KHz\r\nFrame rate                               : 43.066 fps (1024 spf)\r\nCompression mode                         : Lossy\r\nStream size                              : 233 MiB (20%)\r\nDefault                                  : Yes\r\nAlternate group                          : 1","torrent":{"xt":"urn:btih:288d321a8cea3f1f9be64452f43a96d50a896898","amp;dn":"Wonder+Boys%282000%29MPEG-4%5BDaScubaDude%5D","amp;tr":["udp%3A%2F%2Ftracker.leechers-paradise.org%3A6969","udp%3A%2F%2Fzer0day.ch%3A1337","udp%3A%2F%2Fopen.demonii.com%3A1337","udp%3A%2F%2Ftracker.coppersurfer.tk%3A6969","udp%3A%2F%2Fexodus.desync.com%3A6969"],"infoHash":"288d321a8cea3f1f9be64452f43a96d50a896898","infoHashBuffer":{"type":"Buffer","data":[40,141,50,26,140,234,63,31,155,230,68,82,244,58,150,213,10,137,104,152]},"announce":[],"urlList":[]}}